<?xml version="1.0" encoding="iso-8859-1"?>
<!-- Uploaded to: SVG Repo, www.svgrepo.com, Generator: SVG Repo Mixer Tools -->
<!DOCTYPE svg PUBLIC "-//W3C//DTD SVG 1.1//EN" "http://www.w3.org/Graphics/SVG/1.1/DTD/svg11.dtd">
<svg fill="#000000" height="800px" width="800px" version="1.1" id="Capa_1" xmlns="http://www.w3.org/2000/svg" xmlns:xlink="http://www.w3.org/1999/xlink" 
	 viewBox="0 0 462 462" xml:space="preserve">
<g>
	<path d="M170,251c19.299,0,35-15.701,35-35s-15.701-35-35-35s-35,15.701-35,35S150.701,251,170,251z M170,201
		c8.271,0,15,6.729,15,15s-6.729,15-15,15s-15-6.729-15-15S161.729,201,170,201z"/>
	<path d="M120,331c5.523,0,10-4.477,10-10c0-18.604,12.767-34.282,30-38.734v13.11c0,5.523,4.477,10,10,10s10-4.477,10-10v-13.11
		c17.233,4.452,30,20.13,30,38.734c0,5.523,4.477,10,10,10s10-4.477,10-10c0-33.084-26.916-60-60-60s-60,26.916-60,60
		C110,326.523,114.477,331,120,331z"/>
	<path d="M30,316.571H20V95.429h372v10c0,5.523,4.477,10,10,10s10-4.477,10-10v-20c0-5.523-4.477-10-10-10H10
		c-5.523,0-10,4.477-10,10v241.143c0,5.523,4.477,10,10,10h20c5.523,0,10-4.477,10-10S35.523,316.571,30,316.571z"/>
	<path d="M452,125.429H60c-5.523,0-10,4.477-10,10v241.143c0,5.523,4.477,10,10,10h392c5.523,0,10-4.477,10-10V135.429
		C462,129.906,457.523,125.429,452,125.429z M442,366.571H70V145.429h372V366.571z"/>
	<path d="M280,217.232h56c5.523,0,10-4.477,10-10s-4.477-10-10-10h-56c-5.523,0-10,4.477-10,10S274.477,217.232,280,217.232z"/>
	<path d="M280,264.768h112c5.523,0,10-4.477,10-10s-4.477-10-10-10H280c-5.523,0-10,4.477-10,10S274.477,264.768,280,264.768z"/>
	<path d="M280,314.768h112c5.523,0,10-4.477,10-10s-4.477-10-10-10H280c-5.523,0-10,4.477-10,10S274.477,314.768,280,314.768z"/>
</g>
</svg>